<svg width="16" height="16" viewBox="0 0 16 16" fill="none" xmlns="http://www.w3.org/2000/svg">
  <path
    d="M14.6667 8C14.6667 11.6819 11.6819 14.6667 8.00001 14.6667M14.6667 8C14.6667 4.3181 11.6819 1.33333 8.00001 1.33333M14.6667 8H1.33334M8.00001 14.6667C4.31811 14.6667 1.33334 11.6819 1.33334 8M8.00001 14.6667C6.28817 12.8692 5.33334 10.4822 5.33334 8C5.33334 5.51783 6.28817 3.13077 8.00001 1.33333M8.00001 14.6667C9.71185 12.8692 10.6667 10.4822 10.6667 8C10.6667 5.51783 9.71185 3.13077 8.00001 1.33333M1.33334 8C1.33334 4.3181 4.31811 1.33333 8.00001 1.33333"
    stroke="#0660fc" stroke-linecap="round" stroke-linejoin="round" />
</svg>